<svg xmlns="http://www.w3.org/2000/svg" viewBox="0 0 500 500"><g id="freepik--Shadow--inject-113"><ellipse cx="247" cy="425.06" rx="156.5" ry="8.06" style="fill:#263238"></ellipse></g><g id="freepik--Device--inject-113"><path d="M154.84,282.15H348.15a4.29,4.29,0,0,1,4.29,4.29v124.1a0,0,0,0,1,0,0H150.54a0,0,0,0,1,0,0V286.44A4.29,4.29,0,0,1,154.84,282.15Z" style="fill:#92E3A9;stroke:#263238;stroke-linecap:round;stroke-linejoin:round"></path><path d="M165.21,291.89H337.78a4.29,4.29,0,0,1,4.29,4.29V412.27a0,0,0,0,1,0,0H160.91a0,0,0,0,1,0,0V296.19A4.29,4.29,0,0,1,165.21,291.89Z" style="fill:#263238;stroke:#263238;stroke-linecap:round;stroke-linejoin:round"></path><path d="M350.71,420.91H143.29c-9.55,0-17.29-5.78-17.29-12.91H368C368,415.13,360.26,420.91,350.71,420.91Z" style="fill:#92E3A9;stroke:#263238;stroke-linecap:round;stroke-linejoin:round"></path></g><g id="freepik--Shield--inject-113"><path d="M250.63,163.93c-13.32,12.67-47.39,25.47-87.12,52.62,0,0,2.48,91.74,87.12,141.89Z" style="fill:#92E3A9;stroke:#263238;stroke-linecap:round;stroke-linejoin:round"></path><path d="M250.63,163.93c13.31,12.67,47.39,25.47,87.12,52.62,0,0-2.48,91.74-87.12,141.89Z" style="fill:#263238;stroke:#263238;stroke-linecap:round;stroke-linejoin:round"></path><path d="M250.63,171.74c-16.07,11.39-43.92,22.25-80.73,47.4,0,0,2.3,85,80.73,131.49,78.43-46.47,80.73-131.49,80.73-131.49C294.54,194,266.82,183.13,250.63,171.74Z" style="fill:#263238;stroke:#263238;stroke-linecap:round;stroke-linejoin:round"></path><path d="M317.6,210.11c-56.16,17-99,66.35-118.48,92.38a160.89,160.89,0,0,0,51.51,48.14c78.43-46.47,80.73-131.49,80.73-131.49Q324.25,214.3,317.6,210.11Z" style="fill:#92E3A9;stroke:#263238;stroke-linecap:round;stroke-linejoin:round"></path><path d="M281.21,257.45H221a5,5,0,0,1-5-5V224.11a35.09,35.09,0,0,1,70.17,0v28.34A5,5,0,0,1,281.21,257.45Zm-55.17-10h50.17V224.11a25.09,25.09,0,0,0-50.17,0Z" style="fill:#fff;stroke:#263238;stroke-linecap:round;stroke-linejoin:round"></path><rect x="212.33" y="243.79" width="76.6" height="64.73" style="fill:#fff;stroke:#263238;stroke-linecap:round;stroke-linejoin:round"></rect><path d="M258.59,270.67a8.34,8.34,0,1,0-12.3,7.34l-1.4,14.7h10.72l-1.4-14.7A8.32,8.32,0,0,0,258.59,270.67Z" style="fill:#263238;stroke:#263238;stroke-linecap:round;stroke-linejoin:round"></path></g><g id="freepik--Icons--inject-113"><path d="M401.55,258.09l-.12-1.5" style="fill:none;stroke:#263238;stroke-linecap:round;stroke-linejoin:round"></path><path d="M401.14,253.6a155,155,0,0,0-307.4-6.89q-.64,4.26-1,8.55" style="fill:none;stroke:#263238;stroke-linecap:round;stroke-linejoin:round;stroke-dasharray:3.0079100131988525,3.0079100131988525"></path><path d="M92.56,256.74l-.12,1.49" style="fill:none;stroke:#263238;stroke-linecap:round;stroke-linejoin:round"></path><polygon points="126.99 232.03 135.85 195.98 108.97 195.98 126.99 232.03" style="fill:#263238;stroke:#263238;stroke-linecap:round;stroke-linejoin:round"></polygon><polygon points="126.99 232.03 128.96 197.35 111.85 197.35 126.99 232.03" style="fill:#92E3A9;stroke:#263238;stroke-linecap:round;stroke-linejoin:round"></polygon><polygon points="126.99 232.03 125.16 194.65 108.05 194.65 126.99 232.03" style="fill:#92E3A9;stroke:#263238;stroke-linecap:round;stroke-linejoin:round"></polygon><polygon points="95.05 192.92 90.64 187.93 67.42 187.93 78.31 232.03 126.99 232.03 119.27 192.92 95.05 192.92" style="fill:#263238;stroke:#263238;stroke-linecap:round;stroke-linejoin:round"></polygon><rect x="117" y="124.67" width="65.33" height="38.67" rx="3.67" style="fill:#263238;stroke:#263238;stroke-linecap:round;stroke-linejoin:round"></rect><rect x="117" y="132" width="65.33" height="14" style="fill:#92E3A9;stroke:#263238;stroke-linecap:round;stroke-linejoin:round"></rect><path d="M168.54,157.16a2.73,2.73,0,1,0-2.73,2.73A2.73,2.73,0,0,0,168.54,157.16Z" style="fill:#fff;stroke:#263238;stroke-linecap:round;stroke-linejoin:round"></path><path d="M176.13,157.16a2.73,2.73,0,1,0-2.73,2.73A2.73,2.73,0,0,0,176.13,157.16Z" style="fill:#fff;stroke:#263238;stroke-linecap:round;stroke-linejoin:round"></path><rect x="217.11" y="98.76" width="69.96" height="45.36" style="fill:#92E3A9;stroke:#263238;stroke-linecap:round;stroke-linejoin:round"></rect><rect x="220.52" y="101.64" width="63.38" height="39.23" style="fill:#263238;stroke:#263238;stroke-linecap:round;stroke-linejoin:round"></rect><path d="M239.06,129c0-4.28-3.48-11.64-7.76-11.64s-7.77,7.36-7.77,11.64,3.48,5.34,7.77,5.34S239.06,133.25,239.06,129Z" style="fill:#fff;stroke:#263238;stroke-linecap:round;stroke-linejoin:round"></path><circle cx="231.3" cy="113.44" r="5.34" style="fill:#fff;stroke:#263238;stroke-linecap:round;stroke-linejoin:round"></circle><line x1="246.82" y1="109.11" x2="259.75" y2="109.11" style="fill:none;stroke:#fff;stroke-linecap:round;stroke-linejoin:round;stroke-width:2px"></line><line x1="246.82" y1="114.71" x2="259.75" y2="114.71" style="fill:none;stroke:#fff;stroke-linecap:round;stroke-linejoin:round;stroke-width:2px"></line><line x1="246.82" y1="124.63" x2="276.99" y2="124.63" style="fill:none;stroke:#fff;stroke-linecap:round;stroke-linejoin:round;stroke-width:2px"></line><line x1="246.82" y1="131.96" x2="276.99" y2="131.96" style="fill:none;stroke:#fff;stroke-linecap:round;stroke-linejoin:round;stroke-width:2px"></line><rect x="324.95" y="124.67" width="63.69" height="38.74" rx="5.83" style="fill:#263238;stroke:#263238;stroke-linecap:round;stroke-linejoin:round;stroke-width:2px"></rect><path d="M359.34,143.07l29.3-14.82v-.68a2.9,2.9,0,0,0-2.9-2.9H327.86a2.91,2.91,0,0,0-2.91,2.9v.81l28.77,14.76A6.25,6.25,0,0,0,359.34,143.07Z" style="fill:#92E3A9;stroke:#263238;stroke-linecap:round;stroke-linejoin:round;stroke-width:2px"></path><rect x="360.43" y="192.21" width="64.37" height="32.49" rx="4.05" style="fill:#263238"></rect><polyline points="360.44 216.2 360.44 233.65 370.17 222.45" style="fill:#263238"></polyline><path d="M382.88,209.05a3.34,3.34,0,1,0-3.33,3.33A3.34,3.34,0,0,0,382.88,209.05Z" style="fill:#92E3A9"></path><path d="M397.17,209.05a3.34,3.34,0,1,0-3.33,3.33A3.34,3.34,0,0,0,397.17,209.05Z" style="fill:#92E3A9"></path><path d="M411.47,209.05a3.34,3.34,0,1,0-3.34,3.33A3.35,3.35,0,0,0,411.47,209.05Z" style="fill:#92E3A9"></path><path d="M126.65,273.27a1.68,1.68,0,0,0-1.33-.66H82.12l-1.66-5a1.68,1.68,0,0,0-1.59-1.14H67.93a1.68,1.68,0,0,0,0,3.35h9.73l10.55,31.65a1.67,1.67,0,0,0,1.59,1.14h.61a5.71,5.71,0,0,0-.92,3.11,5.78,5.78,0,1,0,10.63-3.11h8a5.71,5.71,0,0,0-.92,3.11,5.78,5.78,0,1,0,11.55,0,5.71,5.71,0,0,0-.92-3.11h1.29a1.68,1.68,0,1,0,0-3.35H91l-1.85-5.53h31.38a1.68,1.68,0,0,0,1.62-1.24l4.78-17.76A1.66,1.66,0,0,0,126.65,273.27ZM95.26,308.14a2.42,2.42,0,1,1,2.42-2.42A2.43,2.43,0,0,1,95.26,308.14Zm17.77,0a2.42,2.42,0,1,1,2.42-2.42A2.43,2.43,0,0,1,113,308.14Zm4.47-17.76h-6.21V276h6.21ZM101.72,276h6.21v14.41h-6.21Zm-3.35,14.41H92.16V276h6.21ZM83.24,276H88.8v14.41h-.75Zm37.61,8.48V276h2.28Z" style="fill:#263238"></path><path d="M399.15,265.17a24.17,24.17,0,1,0,24.16,24.16A24.19,24.19,0,0,0,399.15,265.17Zm0,3c2,0,4.18,2.62,5.72,7H393.43C395,270.79,397.12,268.17,399.15,268.17Zm6.59,10a47,47,0,0,1,1.21,9.63H391.34a47,47,0,0,1,1.21-9.63ZM407,290.83A45,45,0,0,1,405.34,302H393a45,45,0,0,1-1.61-11.13Zm-18.62-3H378.05a21.09,21.09,0,0,1,3.12-9.63h8.28A50.92,50.92,0,0,0,388.33,287.83Zm0,3A49.49,49.49,0,0,0,389.81,302H382.2a21,21,0,0,1-4.15-11.13ZM390.75,305a21.46,21.46,0,0,0,2.34,4.65,21.15,21.15,0,0,1-8.17-4.65Zm3.25,0h10.29c-1.47,3.5-3.36,5.54-5.14,5.54S395.48,308.46,394,305Zm13.54,0h5.83a21.15,21.15,0,0,1-8.17,4.65A21.46,21.46,0,0,0,407.54,305Zm.94-3A48.93,48.93,0,0,0,410,290.83h10.28A21,21,0,0,1,416.09,302ZM410,287.83a50.92,50.92,0,0,0-1.12-9.63h8.28a21.09,21.09,0,0,1,3.12,9.63Zm4.9-12.63h-6.81a23.22,23.22,0,0,0-2.85-6.14A21.23,21.23,0,0,1,414.86,275.2Zm-21.77-6.14a22.91,22.91,0,0,0-2.84,6.14h-6.82A21.23,21.23,0,0,1,393.09,269.06Z" style="fill:#263238"></path></g></svg>